<svg xmlns="http://www.w3.org/2000/svg" width="1024" height="1024" viewBox="0 0 108 108">
  <defs>
    <linearGradient id="bg" x1="16" y1="12" x2="98" y2="104" gradientUnits="userSpaceOnUse">
      <stop offset="0" stop-color="#30254F"/>
      <stop offset="0.45" stop-color="#6F58D8"/>
      <stop offset="1" stop-color="#FFBDA8"/>
    </linearGradient>
    <linearGradient id="orb" x1="35" y1="39" x2="76" y2="86" gradientUnits="userSpaceOnUse">
      <stop offset="0" stop-color="#FFFFFF"/>
      <stop offset="0.72" stop-color="#FFF1EC"/>
      <stop offset="1" stop-color="#F4D8FF"/>
    </linearGradient>
    <filter id="shadow" x="-20%" y="-20%" width="140%" height="140%">
      <feDropShadow dx="0" dy="4" stdDeviation="4" flood-color="#231642" flood-opacity="0.25"/>
    </filter>
  </defs>
  <path d="M23 8 L85 8 A15 15 0 0 1 100 23 L100 85 A15 15 0 0 1 85 100 L23 100 A15 15 0 0 1 8 85 L8 23 A15 15 0 0 1 23 8 Z" fill="url(#bg)"/>
  <path d="M17 74 C35 48 55 50 91 29 L100 64 C74 85 44 90 17 74 Z" fill="#fff" opacity="0.18"/>
  <circle cx="54" cy="58" r="34" fill="#fff" opacity="0.17"/>
  <circle cx="54" cy="62" r="27" fill="url(#orb)" filter="url(#shadow)"/>
  <path d="M54 41 C60 33 68 31 77 34 C72 25 63 19 52 19 C58 24 60 33 54 41 Z" fill="#FFE2A9"/>
  <path d="M77 23 l2.2 5.2 l5.2 2.2 l-5.2 2.2 l-2.2 5.2 l-2.2 -5.2 l-5.2 -2.2 l5.2 -2.2 Z" fill="#FFF2C7"/>
  <path d="M30 35 l1.4 3.4 l3.4 1.4 l-3.4 1.4 l-1.4 3.4 l-1.4 -3.4 l-3.4 -1.4 l3.4 -1.4 Z" fill="#FFD4EA"/>
  <circle cx="42" cy="57" r="3" fill="#342A62"/>
  <circle cx="66" cy="57" r="3" fill="#342A62"/>
  <path d="M50 70 q4 3.5 8 0" fill="none" stroke="#7D5BC7" stroke-width="2.4" stroke-linecap="round"/>
  <ellipse cx="39" cy="67" rx="3.2" ry="2.5" fill="#FF9FC4" opacity="0.58"/>
  <ellipse cx="69" cy="67" rx="3.2" ry="2.5" fill="#FF9FC4" opacity="0.58"/>
  <path d="M37 83 C47 91 62 92 73 84" fill="none" stroke="#FFFFFF" stroke-opacity="0.55" stroke-width="3" stroke-linecap="round"/>
</svg>
